<mxfile host="app.diagrams.net" agent="Mozilla/5.0 (Windows NT 10.0; Win64; x64) AppleWebKit/537.36 (KHTML, like Gecko) Chrome/132.0.0.0 Safari/537.36" version="26.0.10">
  <diagram name="Страница — 1" id="SeEi-_ZefRSOAg-EYD2t">
    <mxGraphModel dx="398" dy="252" grid="1" gridSize="10" guides="1" tooltips="1" connect="1" arrows="1" fold="1" page="1" pageScale="1" pageWidth="827" pageHeight="1169" math="0" shadow="0">
      <root>
        <mxCell id="0" />
        <mxCell id="1" parent="0" />
        <mxCell id="dbEYTI0G9b-l1WtTMVDP-7" style="edgeStyle=orthogonalEdgeStyle;rounded=0;orthogonalLoop=1;jettySize=auto;html=1;exitX=1;exitY=0.5;exitDx=0;exitDy=0;entryX=0;entryY=0.5;entryDx=0;entryDy=0;strokeColor=#457B9D;fontColor=default;fillColor=#A8DADC;startArrow=ERzeroToMany;startFill=0;endArrow=ERmandOne;endFill=0;labelBackgroundColor=none;" edge="1" parent="1" source="dbEYTI0G9b-l1WtTMVDP-5" target="dbEYTI0G9b-l1WtTMVDP-6">
          <mxGeometry relative="1" as="geometry" />
        </mxCell>
        <mxCell id="dbEYTI0G9b-l1WtTMVDP-5" value="автомобиль" style="whiteSpace=wrap;html=1;align=center;strokeColor=#457B9D;fontColor=#1D3557;fillColor=#A8DADC;labelBackgroundColor=none;" vertex="1" parent="1">
          <mxGeometry x="120" y="80" width="80" height="40" as="geometry" />
        </mxCell>
        <mxCell id="dbEYTI0G9b-l1WtTMVDP-6" value="владелец" style="whiteSpace=wrap;html=1;align=center;strokeColor=#457B9D;fontColor=#1D3557;fillColor=#A8DADC;labelBackgroundColor=none;" vertex="1" parent="1">
          <mxGeometry x="280" y="80" width="80" height="40" as="geometry" />
        </mxCell>
        <mxCell id="dbEYTI0G9b-l1WtTMVDP-10" style="edgeStyle=orthogonalEdgeStyle;rounded=0;orthogonalLoop=1;jettySize=auto;html=1;exitX=1;exitY=0.5;exitDx=0;exitDy=0;entryX=0;entryY=0.5;entryDx=0;entryDy=0;strokeColor=#457B9D;fontColor=default;fillColor=#A8DADC;startArrow=ERzeroToMany;startFill=0;endArrow=ERzeroToOne;endFill=0;labelBackgroundColor=none;" edge="1" parent="1" source="dbEYTI0G9b-l1WtTMVDP-11" target="dbEYTI0G9b-l1WtTMVDP-12">
          <mxGeometry relative="1" as="geometry" />
        </mxCell>
        <mxCell id="dbEYTI0G9b-l1WtTMVDP-11" value="автомобиль" style="whiteSpace=wrap;html=1;align=center;strokeColor=#457B9D;fontColor=#1D3557;fillColor=#A8DADC;labelBackgroundColor=none;" vertex="1" parent="1">
          <mxGeometry x="120" y="130" width="80" height="40" as="geometry" />
        </mxCell>
        <mxCell id="dbEYTI0G9b-l1WtTMVDP-12" value="владелец" style="whiteSpace=wrap;html=1;align=center;strokeColor=#457B9D;fontColor=#1D3557;fillColor=#A8DADC;labelBackgroundColor=none;" vertex="1" parent="1">
          <mxGeometry x="280" y="130" width="80" height="40" as="geometry" />
        </mxCell>
        <mxCell id="dbEYTI0G9b-l1WtTMVDP-13" style="edgeStyle=orthogonalEdgeStyle;rounded=0;orthogonalLoop=1;jettySize=auto;html=1;exitX=1;exitY=0.5;exitDx=0;exitDy=0;entryX=0;entryY=0.5;entryDx=0;entryDy=0;strokeColor=#457B9D;fontColor=default;fillColor=#A8DADC;startArrow=ERzeroToOne;startFill=0;endArrow=ERzeroToMany;endFill=0;labelBackgroundColor=none;" edge="1" parent="1" source="dbEYTI0G9b-l1WtTMVDP-14" target="dbEYTI0G9b-l1WtTMVDP-15">
          <mxGeometry relative="1" as="geometry" />
        </mxCell>
        <mxCell id="dbEYTI0G9b-l1WtTMVDP-14" value="категория" style="whiteSpace=wrap;html=1;align=center;strokeColor=#457B9D;fontColor=#1D3557;fillColor=#A8DADC;labelBackgroundColor=none;" vertex="1" parent="1">
          <mxGeometry x="120" y="200" width="80" height="40" as="geometry" />
        </mxCell>
        <mxCell id="dbEYTI0G9b-l1WtTMVDP-15" value="товар" style="whiteSpace=wrap;html=1;align=center;strokeColor=#457B9D;fontColor=#1D3557;fillColor=#A8DADC;labelBackgroundColor=none;" vertex="1" parent="1">
          <mxGeometry x="280" y="200" width="80" height="40" as="geometry" />
        </mxCell>
        <mxCell id="dbEYTI0G9b-l1WtTMVDP-16" style="edgeStyle=orthogonalEdgeStyle;rounded=0;orthogonalLoop=1;jettySize=auto;html=1;exitX=1;exitY=0.5;exitDx=0;exitDy=0;entryX=0;entryY=0.5;entryDx=0;entryDy=0;strokeColor=#457B9D;fontColor=default;fillColor=#A8DADC;startArrow=ERzeroToMany;startFill=0;endArrow=ERzeroToMany;endFill=0;labelBackgroundColor=none;" edge="1" parent="1" source="dbEYTI0G9b-l1WtTMVDP-17" target="dbEYTI0G9b-l1WtTMVDP-18">
          <mxGeometry relative="1" as="geometry" />
        </mxCell>
        <mxCell id="dbEYTI0G9b-l1WtTMVDP-17" value="фильм" style="whiteSpace=wrap;html=1;align=center;strokeColor=#457B9D;fontColor=#1D3557;fillColor=#A8DADC;labelBackgroundColor=none;" vertex="1" parent="1">
          <mxGeometry x="120" y="270" width="80" height="40" as="geometry" />
        </mxCell>
        <mxCell id="dbEYTI0G9b-l1WtTMVDP-18" value="актёр" style="whiteSpace=wrap;html=1;align=center;strokeColor=#457B9D;fontColor=#1D3557;fillColor=#A8DADC;labelBackgroundColor=none;" vertex="1" parent="1">
          <mxGeometry x="280" y="270" width="80" height="40" as="geometry" />
        </mxCell>
        <mxCell id="dbEYTI0G9b-l1WtTMVDP-19" style="edgeStyle=orthogonalEdgeStyle;rounded=0;orthogonalLoop=1;jettySize=auto;html=1;exitX=1;exitY=0.5;exitDx=0;exitDy=0;entryX=0;entryY=0.5;entryDx=0;entryDy=0;strokeColor=#457B9D;fontColor=default;fillColor=#A8DADC;startArrow=ERzeroToMany;startFill=0;endArrow=ERzeroToMany;endFill=0;labelBackgroundColor=none;" edge="1" source="dbEYTI0G9b-l1WtTMVDP-20" target="dbEYTI0G9b-l1WtTMVDP-21" parent="1">
          <mxGeometry relative="1" as="geometry" />
        </mxCell>
        <mxCell id="dbEYTI0G9b-l1WtTMVDP-20" value="видеоигра" style="whiteSpace=wrap;html=1;align=center;strokeColor=#457B9D;fontColor=#1D3557;fillColor=#A8DADC;labelBackgroundColor=none;" vertex="1" parent="1">
          <mxGeometry x="120" y="340" width="80" height="40" as="geometry" />
        </mxCell>
        <mxCell id="dbEYTI0G9b-l1WtTMVDP-21" value="игрок" style="whiteSpace=wrap;html=1;align=center;strokeColor=#457B9D;fontColor=#1D3557;fillColor=#A8DADC;labelBackgroundColor=none;" vertex="1" parent="1">
          <mxGeometry x="280" y="340" width="80" height="40" as="geometry" />
        </mxCell>
        <mxCell id="dbEYTI0G9b-l1WtTMVDP-22" style="edgeStyle=orthogonalEdgeStyle;rounded=0;orthogonalLoop=1;jettySize=auto;html=1;exitX=1;exitY=0.5;exitDx=0;exitDy=0;entryX=0;entryY=0.5;entryDx=0;entryDy=0;strokeColor=#457B9D;fontColor=default;fillColor=#A8DADC;startArrow=ERmandOne;startFill=0;endArrow=ERzeroToMany;endFill=0;labelBackgroundColor=none;" edge="1" parent="1" source="dbEYTI0G9b-l1WtTMVDP-23" target="dbEYTI0G9b-l1WtTMVDP-24">
          <mxGeometry relative="1" as="geometry" />
        </mxCell>
        <mxCell id="dbEYTI0G9b-l1WtTMVDP-23" value="директор ФК" style="whiteSpace=wrap;html=1;align=center;strokeColor=#457B9D;fontColor=#1D3557;fillColor=#A8DADC;labelBackgroundColor=none;" vertex="1" parent="1">
          <mxGeometry x="120" y="410" width="80" height="40" as="geometry" />
        </mxCell>
        <mxCell id="dbEYTI0G9b-l1WtTMVDP-24" value="ФК" style="whiteSpace=wrap;html=1;align=center;strokeColor=#457B9D;fontColor=#1D3557;fillColor=#A8DADC;labelBackgroundColor=none;" vertex="1" parent="1">
          <mxGeometry x="280" y="410" width="80" height="40" as="geometry" />
        </mxCell>
        <mxCell id="dbEYTI0G9b-l1WtTMVDP-25" style="edgeStyle=orthogonalEdgeStyle;rounded=0;orthogonalLoop=1;jettySize=auto;html=1;exitX=1;exitY=0.5;exitDx=0;exitDy=0;entryX=0;entryY=0.5;entryDx=0;entryDy=0;strokeColor=#457B9D;fontColor=default;fillColor=#A8DADC;startArrow=ERzeroToMany;startFill=0;endArrow=ERmandOne;endFill=0;labelBackgroundColor=none;" edge="1" source="dbEYTI0G9b-l1WtTMVDP-26" target="dbEYTI0G9b-l1WtTMVDP-27" parent="1">
          <mxGeometry relative="1" as="geometry" />
        </mxCell>
        <mxCell id="dbEYTI0G9b-l1WtTMVDP-26" value="помещение" style="whiteSpace=wrap;html=1;align=center;strokeColor=#457B9D;fontColor=#1D3557;fillColor=#A8DADC;labelBackgroundColor=none;" vertex="1" parent="1">
          <mxGeometry x="120" y="480" width="80" height="40" as="geometry" />
        </mxCell>
        <mxCell id="dbEYTI0G9b-l1WtTMVDP-27" value="арендатор" style="whiteSpace=wrap;html=1;align=center;strokeColor=#457B9D;fontColor=#1D3557;fillColor=#A8DADC;labelBackgroundColor=none;" vertex="1" parent="1">
          <mxGeometry x="280" y="480" width="80" height="40" as="geometry" />
        </mxCell>
        <mxCell id="dbEYTI0G9b-l1WtTMVDP-28" style="edgeStyle=orthogonalEdgeStyle;rounded=0;orthogonalLoop=1;jettySize=auto;html=1;exitX=1;exitY=0.5;exitDx=0;exitDy=0;entryX=0;entryY=0.5;entryDx=0;entryDy=0;strokeColor=#457B9D;fontColor=default;fillColor=#A8DADC;startArrow=ERmandOne;startFill=0;endArrow=ERzeroToOne;endFill=0;labelBackgroundColor=none;" edge="1" source="dbEYTI0G9b-l1WtTMVDP-29" target="dbEYTI0G9b-l1WtTMVDP-30" parent="1">
          <mxGeometry relative="1" as="geometry" />
        </mxCell>
        <mxCell id="dbEYTI0G9b-l1WtTMVDP-29" value="студент" style="whiteSpace=wrap;html=1;align=center;strokeColor=#457B9D;fontColor=#1D3557;fillColor=#A8DADC;labelBackgroundColor=none;" vertex="1" parent="1">
          <mxGeometry x="120" y="550" width="80" height="40" as="geometry" />
        </mxCell>
        <mxCell id="dbEYTI0G9b-l1WtTMVDP-30" value="студ билет" style="whiteSpace=wrap;html=1;align=center;strokeColor=#457B9D;fontColor=#1D3557;fillColor=#A8DADC;labelBackgroundColor=none;" vertex="1" parent="1">
          <mxGeometry x="280" y="550" width="80" height="40" as="geometry" />
        </mxCell>
        <mxCell id="dbEYTI0G9b-l1WtTMVDP-34" style="edgeStyle=orthogonalEdgeStyle;rounded=0;orthogonalLoop=1;jettySize=auto;html=1;exitX=1;exitY=0.5;exitDx=0;exitDy=0;entryX=0;entryY=0.5;entryDx=0;entryDy=0;strokeColor=#457B9D;fontColor=default;fillColor=#A8DADC;startArrow=ERzeroToOne;startFill=0;endArrow=ERzeroToMany;endFill=0;labelBackgroundColor=none;" edge="1" source="dbEYTI0G9b-l1WtTMVDP-35" target="dbEYTI0G9b-l1WtTMVDP-36" parent="1">
          <mxGeometry relative="1" as="geometry" />
        </mxCell>
        <mxCell id="dbEYTI0G9b-l1WtTMVDP-35" value="категория" style="whiteSpace=wrap;html=1;align=center;strokeColor=#457B9D;fontColor=#1D3557;fillColor=#A8DADC;labelBackgroundColor=none;" vertex="1" parent="1">
          <mxGeometry x="80" y="640" width="80" height="40" as="geometry" />
        </mxCell>
        <mxCell id="dbEYTI0G9b-l1WtTMVDP-36" value="товар" style="whiteSpace=wrap;html=1;align=center;strokeColor=#457B9D;fontColor=#1D3557;fillColor=#A8DADC;labelBackgroundColor=none;" vertex="1" parent="1">
          <mxGeometry x="240" y="640" width="80" height="40" as="geometry" />
        </mxCell>
      </root>
    </mxGraphModel>
  </diagram>
</mxfile>
